<?xml version="1.0" standalone="no"?><!DOCTYPE svg PUBLIC "-//W3C//DTD SVG 1.1//EN" "http://www.w3.org/Graphics/SVG/1.1/DTD/svg11.dtd"><svg t="1533288357577" class="icon" style="" viewBox="0 0 1024 1024" version="1.1" xmlns="http://www.w3.org/2000/svg" p-id="1674" xmlns:xlink="http://www.w3.org/1999/xlink" width="48" height="48"><defs><style type="text/css">@font-face { font-family: rbicon; src: url("chrome-extension://dipiagiiohfljcicegpgffpbnjmgjcnf/fonts/rbicon.woff2") format("woff2"); font-weight: normal; font-style: normal; }
</style></defs><path d="M845.248 466.048c-1.344 0-2.688-0.064-4.032-0.448-9.536-2.112-15.616-11.648-13.504-21.312 11.2-49.728 6.592-84.992-13.568-104.768-33.344-32.768-100.928-16.96-101.568-16.768-9.664 2.368-19.328-3.584-21.568-13.12-2.304-9.6 3.456-19.2 13.12-21.568 3.584-0.896 87.424-20.736 134.912 25.856 29.568 29.056 37.504 75.456 23.424 138.112C860.736 460.416 853.376 466.048 845.248 466.048z" p-id="1675" fill="#ffffff"></path><path d="M961.536 514.88c-1.344 0-2.56-0.128-3.968-0.32-12.928-2.176-21.696-14.464-19.584-27.328 20.032-121.088 3.84-205.888-48.192-252.224-80.256-71.296-223.616-30.784-225.088-30.4-12.544 3.648-25.728-3.648-29.44-16.192C631.68 175.872 638.912 162.688 651.584 158.912c6.784-2.048 169.6-48.32 269.76 40.384 65.216 57.856 86.656 157.312 63.68 295.616C983.04 506.624 972.992 514.88 961.536 514.88z" p-id="1676" fill="#ffffff"></path><path d="M744.512 514.88c0 0 98.688-234.816-230.4-117.824 10.432-123.392-43.136-198.272-203.776-107.072 0 0-521.92 353.856-141.248 579.904 0 0 478.72 197.76 695.936-169.536C908.096 568.064 780.224 512.896 744.512 514.88zM435.648 869.44c-158.336 18.112-296.512-52.288-308.544-157.44S233.6 506.944 391.936 488.832c158.4-18.24 296.576 52.224 308.608 157.312C712.64 751.232 593.984 851.264 435.648 869.44z" p-id="1677" fill="#ffffff"></path><path d="M550.144 680.384C543.616 608.448 469.12 556.352 383.808 564.096c-85.312 7.744-149.184 72.256-142.656 144.256 6.528 72 80.96 124.096 166.272 116.288C492.8 816.96 556.608 752.32 550.144 680.384zM347.776 771.712c-26.368 0-47.808-19.968-47.808-44.544 0-24.576 21.44-44.608 47.808-44.608 26.496 0 47.872 20.032 47.872 44.608C395.648 751.744 374.208 771.712 347.776 771.712zM430.464 696.64c-11.84 0-21.44-9.536-21.44-21.376 0-11.904 9.6-21.504 21.44-21.504s21.44 9.6 21.44 21.504C451.968 687.04 442.304 696.64 430.464 696.64z" p-id="1678" fill="#ffffff"></path></svg>